<svg version="1.2" xmlns="http://www.w3.org/2000/svg" viewBox="0 0 1024 531" width="1024" height="531">
	<title>gift-box-svgrepo-com-svg</title>
	<style>
		.s0 { fill: #fe97ac } 
		.s1 { fill: #ebbe3e } 
		.s2 { fill: #dc0c55 } 
		.s3 { fill: #faf7a6 } 
		.s4 { fill: #ef4668 } 
	</style>
	<path id="Layer" class="s0" d="m884.4 389v101.6c0 16-13 29-29 29h-285.2v-159.6h285.1c16.1 0 29.1 13 29.1 29z"/>
	<path id="Layer" class="s1" d="m793.6 731.9l-9 8.7 2.2 12.2-11-5.9-11 5.9 2.2-12.2-9-8.7 12.4-1.8 5.4-11.1 5.5 11.1z"/>
	<path id="Layer" fill-rule="evenodd" class="s2" d="m570.2 531.3h260v345.5c0 16-13 29-29 29h-231zm159.5 355.5l-3.6-20.8 15.1-14.7-20.9-3-9.3-18.9-9.4 18.9-20.9 3 15.1 14.7-3.5 20.8 18.7-9.9zm26.7-345.9l-9.3 18.9-20.9 3 15.1 14.7-3.6 20.8 18.7-9.9 18.7 9.9-3.5-20.8 15.1-14.7-20.9-3zm49.6 186.9l-20.9-3-9.3-18.9-9.3 18.9-20.9 3 15.1 14.7-3.6 20.8 18.7-9.8 18.7 9.8-3.6-20.8zm-227.8 29l15.1 14.7-3.6 20.8 18.7-9.8 18.7 9.8-3.5-20.8 15.1-14.7-20.9-3-9.4-18.9-9.3 18.9zm102.9-88.7l15.2-14.7-20.9-3-9.4-18.9-9.3 18.9-20.9 3 15.1 14.7-3.6 20.8 18.7-9.9 18.7 9.9z"/>
	<path id="Layer" class="s3" d="m683 194.9c42.3 0 76.8 34.5 76.8 76.8 0 42.4-34.5 76.8-76.8 76.8h-157.9l51.9-78.6c37.6-51.9 61.9-75 106-75z"/>
	<path id="Layer" fill-rule="evenodd" class="s4" d="m806 727.8l-15.1 14.7 3.6 20.8-18.7-9.8-18.7 9.8 3.6-20.8-15.1-14.7 20.9-3 9.3-18.9 9.3 18.9zm-21.4 12.8l8.9-8.7-12.3-1.7-5.5-11.1-5.5 11.1-12.3 1.7 8.9 8.7-2.2 12.2 11-5.8 11 5.8z"/>
	<path id="Layer" class="s1" d="m751 565.1l5.4-11 5.6 11 12.2 1.9-8.8 8.5 2.1 12.2-11.1-5.7-10.9 5.7 2.1-12.2-8.9-8.5z"/>
	<path id="Layer" fill-rule="evenodd" class="s4" d="m771.6 577.6l3.5 20.8-18.7-9.9-18.7 9.9 3.6-20.8-15.1-14.7 20.9-3 9.3-18.9 9.4 18.9 20.9 3zm-15.2-23.5l-5.5 11-12.3 1.9 8.9 8.6-2.1 12.2 10.9-5.7 11 5.7-2.1-12.2 8.8-8.6-12.2-1.9z"/>
	<path id="Layer" class="s1" d="m719.8 863.9l2.1 12.2-10.9-5.7-11 5.7 2.1-12.2-8.9-8.6 12.2-1.9 5.6-11.1 5.5 11.1 12.3 1.9z"/>
	<path id="Layer" fill-rule="evenodd" class="s4" d="m726.1 866l3.6 20.8-18.7-9.9-18.7 9.9 3.5-20.8-15.1-14.7 20.9-3 9.4-18.9 9.3 18.9 20.9 3zm-4.2 10.1l-2.1-12.2 8.9-8.6-12.3-1.9-5.5-11.1-5.6 11.1-12.2 1.9 8.8 8.6-2.1 12.2 11-5.7z"/>
	<path id="Layer" class="s1" d="m674.9 666l2.1 12.3-11-5.8-11 5.8 2.1-12.3-8.9-8.6 12.3-1.8 5.5-11.1 5.4 11.1 12.3 1.8z"/>
	<path id="Layer" fill-rule="evenodd" class="s4" d="m666 631.4l9.4 18.9 20.9 3-15.2 14.7 3.6 20.8-18.7-9.8-18.7 9.9 3.6-20.8-15.1-14.7 20.9-3zm11 46.9l-2.1-12.3 8.8-8.6-12.3-1.9-5.5-11-5.5 11-12.3 1.9 8.9 8.6-2.1 12.3 10.9-5.8z"/>
	<path id="Layer" class="s1" d="m613.9 759.1l12.2 1.8-8.8 8.7 2.1 12.2-11-5.8-11 5.8 2.1-12.2-8.9-8.7 12.3-1.8 5.5-11.1z"/>
	<path id="Layer" fill-rule="evenodd" class="s4" d="m623.6 771.6l3.5 20.8-18.7-9.8-18.7 9.8 3.6-20.8-15.1-14.7 20.9-3 9.3-18.9 9.4 18.9 20.9 3zm-9.7-12.5l-5.6-11.1-5.5 11.1-12.3 1.7 8.9 8.7-2.1 12.2 10.9-5.8 11 5.8-2.1-12.2 8.8-8.7z"/>
	<path id="Layer" class="s3" d="m570.3 143.4c21.9 38.1 18.5 76.5-11.4 128.3l-45.8 67.7-77.7-115.3c-10.1-17.4-12.5-39.4-6.7-60.2 5.7-20.8 19.2-38.4 36.7-48.7 11.8-6.7 25-10.3 38.2-10.3 6.7 0 13.5 0.9 20.1 2.7 19.7 5.4 36.4 18.1 46.6 35.8zm-11.8 447.9v314.5h-91.9v-545.8h46.4l0.1 0.1 0.2-0.1h45.2v171.3zm-107.1-321.7l52.1 78.8h-157.9c-42.4 0-76.8-34.4-76.8-76.8 0-42.3 34.4-76.8 76.8-76.8 44 0.1 68.2 23.2 105.8 74.8z"/>
	<path id="Layer" class="s0" d="m455 360v159.7h-281.9c-16 0-29-13-29-29v-101.7c0-16 13-29 29-29z"/>
	<path id="Layer" class="s1" d="m418 760.9l-8.8 8.7 2.1 12.2-11-5.8-11 5.8 2.1-12.2-8.9-8.7 12.3-1.8 5.5-11.1 5.5 11.1z"/>
	<path id="Layer" fill-rule="evenodd" class="s4" d="m409.7 753.8l20.9 3-15.1 14.7 3.5 20.8-18.7-9.8-18.7 9.8 3.6-20.8-15.1-14.7 20.9-3 9.3-18.9zm-0.5 15.8l8.8-8.7-12.2-1.7-5.6-11.1-5.5 11.1-12.3 1.7 8.9 8.7-2.1 12.2 10.9-5.8 11 5.8z"/>
	<path id="Layer" class="s1" d="m351.6 666l2.1 12.3-10.9-5.8-11.1 5.8 2.1-12.3-8.8-8.6 12.2-1.8 5.6-11.1 5.4 11.1 12.2 1.8z"/>
	<path id="Layer" fill-rule="evenodd" class="s4" d="m352.1 650.3l20.9 3-15.1 14.7 3.5 20.8-18.6-9.9-18.7 9.9 3.5-20.8-15.1-14.7 20.9-3 9.4-18.9zm1.6 28l-2.1-12.3 8.8-8.6-12.2-1.9-5.5-11-5.6 11-12.2 1.9 8.8 8.6-2.1 12.3 11-5.8z"/>
	<path id="Layer" class="s1" d="m315.5 855.3l-9 8.6 2.3 12.2-11.1-5.7-11 5.7 2.2-12.2-8.9-8.6 12.3-1.9 5.4-11.1 5.5 11.1z"/>
	<path id="Layer" fill-rule="evenodd" class="s4" d="m297.7 829.3l9.3 18.9 20.9 3-15.1 14.8 3.6 20.8-18.7-9.9-18.7 9.9 3.6-20.8-15.1-14.7 20.9-3zm5.5 24.1l-5.5-11.1-5.5 11.1-12.3 1.9 8.9 8.6-2.2 12.2 11-5.7 11 5.7-2.2-12.2 8.9-8.6z"/>
	<path id="Layer" class="s1" d="m234.4 567l12.3-1.9 5.5-11 5.6 11 12.2 1.9-8.9 8.5 2.1 12.2-11-5.7-10.9 5.7 2.1-12.2z"/>
	<path id="Layer" fill-rule="evenodd" class="s4" d="m237.1 577.6l-15.1-14.7 20.9-3 9.3-18.9 9.4 18.9 20.9 3-15.1 14.7 3.5 20.8-18.7-9.9-18.7 9.9zm9.6-12.5l-12.3 1.9 8.9 8.6-2.1 12.2 10.9-5.7 11 5.7-2.1-12.2 8.8-8.6-12.2-1.9-5.6-11z"/>
	<path id="Layer" class="s1" d="m232.9 746.9l-11 5.9 2.1-12.2-8.8-8.7 12.2-1.8 5.5-11.1 5.5 11.1 12.3 1.8-8.9 8.7 2 12.2z"/>
	<path id="Layer" fill-rule="evenodd" class="s2" d="m198.3 876.8v-345.5h256.7v374.5h-227.6c-16.1 0-29.1-13-29.1-29zm125.8-187.9l18.7-9.9 18.6 9.9-3.5-20.8 15.1-14.7-20.9-3-9.3-18.9-9.4 18.9-20.9 3 15.1 14.7zm106.5 67.9l-20.9-3-9.4-18.9-9.3 18.9-20.9 3 15.1 14.7-3.6 20.8 18.7-9.8 18.7 9.8-3.5-20.8zm-114.2 130l-3.6-20.8 15.1-14.7-20.9-3-9.3-18.9-9.3 18.9-20.9 3 15.1 14.7-3.6 20.8 18.7-9.9zm-102.2-123.5l18.7-9.8 18.7 9.8-3.6-20.8 15.1-14.7-20.9-3-9.3-18.9-9.4 18.9-20.9 3 15.1 14.7zm19.3-164.9l18.7-9.9 18.7 9.9-3.5-20.8 15.1-14.7-20.9-3-9.4-18.9-9.3 18.9-20.9 3 15.1 14.7z"/>
	<path id="Layer" fill-rule="evenodd" class="s4" d="m223.5 724.8l9.4-18.9 9.3 18.9 20.9 3-15.1 14.7 3.6 20.8-18.7-9.8-18.7 9.8 3.5-20.8-15.1-14.7zm14.9 5.3l-5.5-11.1-5.6 11.1-12.2 1.7 8.8 8.7-2.1 12.2 11-5.8 10.9 5.8-2.1-12.2 8.9-8.7z"/>
	<path id="Layer" fill-rule="evenodd" class="s4" d="m841.8 531.3v345.5c0 22.4-18.2 40.6-40.6 40.6h-573.8c-22.4 0-40.6-18.2-40.6-40.6v-345.5h-13.6c-22.4 0-40.6-18.2-40.6-40.6v-101.7c0-22.4 18.2-40.6 40.6-40.6h128.8c-26.7-15.2-44.7-43.9-44.7-76.8 0-48.7 39.6-88.4 88.4-88.4 29.7 0 51.1 9.1 72.1 28.5-4.8-16.1-4.9-33.9-0.2-50.9 6.6-23.7 21.9-43.9 42.2-55.5 20.4-11.8 44.2-15 67-8.8 22.9 6 41.9 20.7 53.7 41.1 17.7 30.5 20.3 62 7.9 98.5 29.7-36.3 54.6-52.8 94.9-52.8 48.7 0 88.4 39.7 88.4 88.4 0 32.9-18.1 61.5-44.8 76.8h128.8c22.4 0 40.6 18.2 40.6 40.6v101.6c0 22.4-18.2 40.6-40.6 40.6zm-282.9-259.5c29.8-51.8 33.3-90.2 11.4-128.3-10.2-17.8-26.8-30.4-46.6-35.8-6.6-1.7-13.4-2.7-20.1-2.7-13.2 0-26.4 3.6-38.2 10.3-17.5 10.2-31 27.9-36.7 48.7-5.8 20.8-3.4 42.7 6.7 60.2l77.7 115.3zm-0.4 259.5v-171.3h-45.2l-0.1 0.1-0.2-0.1h-46.4v545.8h92v-374.5zm-360.2 345.5c0 16 13 29 29 29h227.7v-374.5h-256.7zm-25.2-357.1h281.9v-159.7h-281.9c-16 0-29 13-29 29v101.6c0 16.1 13 29.1 29 29.1zm509.9-171.3c42.3 0 76.8-34.4 76.8-76.8 0-42.3-34.5-76.8-76.8-76.8-44.1 0-68.4 23.1-106 74.9l-51.9 78.6h157.9zm118.1 557.4c16 0 29-13 29-29v-345.5h-260v374.5zm-455.5-557.4h157.9l-52.1-78.8c-37.5-51.6-61.8-74.7-105.8-74.7-42.4 0-76.8 34.5-76.8 76.8 0 42.3 34.4 76.7 76.8 76.7zm509.8 171.3c16 0 29-13 29-29v-101.7c0-16-13-29-29-29h-285.2v159.7z"/>
</svg>